<?xml version="1.0" encoding="UTF-8"?>
<!DOCTYPE svg PUBLIC "-//W3C//DTD SVG 1.1//EN" "http://www.w3.org/Graphics/SVG/1.1/DTD/svg11.dtd">
<!-- Creator: CorelDRAW X8 -->
<?xml-stylesheet href="3856-DOTCOMPANY 1-4a64e179-6070-4c11-9544-45c0b7f13149.css" type="text/css"?>
<svg xmlns="http://www.w3.org/2000/svg" xml:space="preserve" width="750px" height="500px" version="1.1" style="shape-rendering:geometricPrecision; text-rendering:geometricPrecision; image-rendering:optimizeQuality; fill-rule:evenodd; clip-rule:evenodd"
viewBox="0 0 750 500"
 xmlns:xlink="http://www.w3.org/1999/xlink">
 <g id="Camada_x0020_1">
  <metadata id="CorelCorpID_0Corel-Layer"/>
  <path class="fil0" d="M51 15l4 0c3,0 5,0 6,0 1,1 1,1 2,2 0,0 1,1 1,2 0,1 0,2 0,4l0 9c0,2 0,3 0,4 0,1 -1,1 -1,2 -1,0 -1,1 -2,1 0,0 -1,0 -3,0l-7 0 0 -24zm6 4l0 16c1,0 1,0 1,-1 0,0 0,-1 0,-3l0 -9c0,-1 0,-2 0,-2 0,0 0,-1 0,-1 0,0 -1,0 -1,0zm22 10c0,2 0,4 0,5 0,1 -1,2 -1,3 -1,1 -1,1 -2,2 -1,0 -2,0 -4,0 -1,0 -2,0 -3,0 -1,-1 -1,-1 -2,-2 0,-1 -1,-2 -1,-3 0,-1 0,-2 0,-5l0 -4c0,-2 0,-4 0,-5 0,-1 1,-2 1,-3 1,-1 1,-1 2,-2 1,0 2,0 3,0 2,0 3,0 4,0 0,1 1,1 2,2 0,1 1,2 1,3 0,1 0,3 0,5l0 4zm-6 -8c0,-1 0,-2 0,-2 0,0 0,0 -1,0 0,0 0,0 0,0 0,0 0,1 0,2l0 11c0,2 0,3 0,3 0,0 0,0 0,0 1,0 1,0 1,0 0,-1 0,-1 0,-3l0 -11zm19 -6l0 5 -3 0 0 19 -6 0 0 -19 -3 0 0 -5 12 0zm15 10l-6 0 0 -4c0,-1 0,-2 0,-2 0,0 -1,0 -1,0 0,0 -1,0 -1,0 0,1 0,1 0,3l0 11c0,1 0,2 0,2 0,0 1,0 1,0 0,0 1,0 1,0 0,0 0,-1 0,-3l0 -3 6 0 0 1c0,3 -1,5 -1,6 0,1 -1,2 -2,2 -1,1 -2,1 -4,1 -2,0 -3,0 -4,-1 -1,0 -2,-1 -2,-2 0,-1 -1,-3 -1,-6l0 -7c0,-1 0,-3 0,-3 1,-1 1,-2 1,-3 1,-1 2,-1 3,-2 1,0 2,0 3,0 1,0 3,0 4,1 1,0 2,1 2,2 0,1 1,3 1,5l0 2zm14 -3c0,-2 0,5 0,6 0,1 0,2 -1,3 0,1 -1,1 -2,2 -1,0 -2,1 -3,1 -1,0 -2,-1 -3,-1 -1,0 -2,-1 -2,-2 -1,-1 -1,-2 -1,-3 -1,-1 -1,-9 -1,-6l0 4c0,3 0,-5 1,-6 0,-1 0,-2 0,-3 1,-1 2,-1 3,-2 1,0 2,0 3,0 1,0 2,0 3,0 1,1 2,1 2,2 1,1 1,2 1,3 0,1 0,9 0,6l0 -4zm-5 -1c0,-1 0,-2 0,-2 -1,0 -1,0 -1,0 0,0 -1,0 -1,0 0,0 0,1 0,2l0 5c0,2 0,3 0,3 0,0 0,1 1,1 0,0 0,-1 1,-1 0,0 0,-1 0,-3l0 -5zm25 -6l0 24 -5 0 0 -16 -2 16 -4 0 -2 -16 0 16 -5 0 0 -24 8 0c0,1 0,3 0,5l1 6 1 -11 8 0zm2 0l5 0c2,0 3,0 4,0 1,1 1,1 2,2 0,0 0,1 1,1 0,1 0,2 0,4l0 2c0,1 0,2 -1,3 0,1 0,1 -1,2 -1,0 -2,0 -3,0l-2 0 0 10 -5 0 0 -24zm5 4l0 6c1,0 1,0 1,0 0,0 1,0 1,0 0,0 0,-1 0,-2l0 -2c0,-1 0,-1 0,-2 0,0 -1,0 -2,0zm17 -4l4 24 -6 0 0 -4 -2 0 -1 4 -6 0 3 -24 8 0zm-3 15c0,-2 0,-6 0,-10 -1,5 -1,8 -1,10l1 0zm20 -15l0 24 -5 0 -3 -11 0 11 -4 0 0 -24 4 0 3 11 0 -11 5 0zm14 0l-4 15 0 9 -5 0 0 -9 -4 -15 5 0c1,5 1,8 1,9 1,-2 1,-5 2,-9l5 0z"/>
  <rect class="fil1" x="108" y="35" width="13.0005" height="4.48582"/>
 </g>
</svg>
